<?xml version="1.0" standalone="no"?>
<!DOCTYPE svg PUBLIC "-//W3C//DTD SVG 20010904//EN"
 "http://www.w3.org/TR/2001/REC-SVG-20010904/DTD/svg10.dtd">
<svg version="1.0" xmlns="http://www.w3.org/2000/svg"
 width="1280.000000pt" height="862.000000pt" viewBox="0 0 1280.000000 862.000000"
 preserveAspectRatio="xMidYMid meet">
<metadata>
Created by potrace 1.15, written by Peter Selinger 2001-2017
</metadata>
<g transform="translate(0.000000,862.000000) scale(0.100000,-0.100000)"
fill="#000000" stroke="none">
<path d="M7372 8564 c-67 -40 -116 -61 -175 -75 -200 -48 -333 -127 -378 -224
-11 -24 -73 -63 -324 -207 -170 -98 -316 -178 -324 -178 -37 0 -154 -36 -228
-70 -88 -41 -168 -107 -189 -156 -11 -27 -59 -58 -311 -204 -279 -161 -304
-174 -398 -196 -177 -44 -324 -132 -360 -217 -11 -27 -57 -57 -315 -206 -272
-156 -311 -175 -384 -191 -187 -41 -343 -137 -370 -226 -5 -15 -98 -74 -307
-195 -284 -163 -308 -174 -408 -200 -174 -43 -310 -125 -346 -207 -15 -34 -43
-52 -323 -213 -259 -149 -317 -178 -372 -189 -171 -32 -341 -130 -371 -214
-10 -29 -46 -52 -313 -206 -283 -164 -307 -176 -409 -201 -180 -47 -295 -116
-349 -210 -20 -35 -49 -55 -218 -153 l-195 -112 0 -618 0 -618 525 -304 c289
-167 530 -303 535 -304 6 0 368 206 805 458 437 252 1156 667 1597 921 l802
463 538 -311 538 -310 3 -615 2 -615 -67 -39 c-119 -69 -146 -80 -238 -101
-161 -37 -290 -116 -342 -210 -15 -27 -57 -56 -213 -146 l-195 -113 -3 -619
-2 -619 532 -307 531 -307 956 552 c526 303 1006 580 1066 615 l110 63 5 1224
5 1225 518 -299 518 -299 522 301 c287 166 529 303 539 305 12 4 779 -429
1044 -588 l30 -18 529 304 c291 168 532 305 536 305 4 0 88 46 186 103 98 57
337 195 531 307 l352 203 0 616 0 616 -215 123 c-118 68 -215 129 -215 136 0
21 -67 92 -118 124 -56 37 -160 77 -250 98 -43 10 -102 36 -167 75 l-102 59
-102 -59 c-69 -40 -121 -62 -163 -71 -187 -36 -345 -129 -387 -226 -10 -23
-51 -51 -209 -141 -109 -62 -201 -113 -204 -113 -4 0 -50 -25 -104 -56 -72
-42 -119 -61 -179 -75 -157 -34 -289 -103 -345 -181 -17 -22 -30 -46 -30 -52
0 -7 -24 -25 -52 -42 -29 -17 -122 -70 -206 -119 l-152 -88 -215 124 c-118 68
-215 129 -215 135 0 7 -21 35 -46 63 -56 62 -168 120 -301 155 -63 17 -124 42
-192 81 l-100 57 -98 -56 c-72 -41 -125 -62 -198 -81 -175 -44 -317 -129 -351
-210 -11 -27 -45 -51 -215 -149 l-201 -116 -205 117 c-188 108 -207 122 -238
169 -53 83 -158 142 -331 188 -105 28 -297 131 -273 147 8 5 488 282 1067 616
l1052 607 0 616 0 615 -214 123 c-169 97 -216 128 -226 151 -33 80 -181 166
-358 207 -41 10 -103 37 -168 75 -57 32 -104 59 -106 59 -2 -1 -45 -26 -96
-56z"/>
</g>
</svg>
